<svg xmlns="http://www.w3.org/2000/svg" width="72.238" height="72" viewBox="0 0 72.238 72">
  <g id="a-guitar" transform="translate(-1805.804 -161.132)">
    <path id="Path_27" data-name="Path 27" d="M70.462,114.236c-3.158,0-7.623-1.012-12.043-5.432-8.636-8.635-5.022-17.4-2.9-20.054C58.1,85.526,61.8,84.68,64.778,84c1.946-.444,3.628-.828,4.552-1.713a6.841,6.841,0,0,0,1.551-3.16,11.948,11.948,0,0,1,4.451-6.86c3.169-2.4,10.241-3.6,16.736,2.889,5.291,5.289,5.421,11.4,4.22,14.225-1.34,3.14-4.267,4.42-6.847,5.551a13.159,13.159,0,0,0-4.106,2.375c-1.134,1.154-1.284,2.676-1.472,4.6-.224,2.289-.5,5.136-2.8,7.881a14.376,14.376,0,0,1-9.957,4.429c-.207.009-.42.014-.64.014m11.1-41.895a8.434,8.434,0,0,0-5.021,1.524,9.963,9.963,0,0,0-3.744,5.85,8.673,8.673,0,0,1-2.081,4.016c-1.324,1.271-3.349,1.733-5.493,2.224-2.812.64-6,1.369-8.141,4.047-1.809,2.261-4.842,9.791,2.754,17.385,3.334,3.336,7.2,5.01,11.177,4.833a12.447,12.447,0,0,0,8.51-3.717c1.9-2.269,2.126-4.564,2.343-6.786.2-2.041.406-4.153,2.036-5.814A14.753,14.753,0,0,1,88.635,93.1c2.458-1.075,4.779-2.092,5.807-4.5.685-1.605,1.338-6.894-3.791-12.021-3.143-3.143-6.388-4.233-9.089-4.233" transform="translate(1752.873 118.896)" fill="#fff"/>
    <path id="Path_28" data-name="Path 28" d="M77.234,87.391c-.025,0-.05,0-.078,0a1,1,0,0,1-.727-.4,16.7,16.7,0,0,0-1.605-1.854,17.541,17.541,0,0,0-1.8-1.571,1,1,0,0,1-.1-1.513L95.3,59.982a1,1,0,0,1,1.573.215,1.158,1.158,0,0,0,.177.234l2.84,2.839a1.08,1.08,0,0,0,.227.173,1,1,0,0,1,.206,1.583L77.938,87.1a1,1,0,0,1-.7.289m-2.1-4.705q.563.484,1.107,1.028c.381.381.743.775,1.084,1.178L98.143,64.358l-2.2-2.2Z" transform="translate(1768.7 110.337)" fill="#fff"/>
    <path id="Path_29" data-name="Path 29" d="M72.208,85.479a5.231,5.231,0,0,1-3.7-8.93,5.359,5.359,0,0,1,7.4,0,5.232,5.232,0,0,1-3.7,8.93m0-8.458a3.226,3.226,0,0,0-2.281,5.508,3.3,3.3,0,0,0,4.564,0,3.227,3.227,0,0,0-2.283-5.508m-2.99.236h0Z" transform="translate(1764.157 122.689)" fill="#fff"/>
    <path id="Path_30" data-name="Path 30" d="M91.377,70.49a1,1,0,0,1-.709-.292l-6.112-6.112a1,1,0,0,1,0-1.417l7.013-7.013c1.524-1.52,4.368-1.062,6.48,1.048s2.572,4.958,1.05,6.481L92.086,70.2a1,1,0,0,1-.709.292m-4.694-7.113,4.694,4.694,6.3-6.3c.613-.615.335-2.263-1.048-3.646s-3.037-1.659-3.646-1.048Z" transform="translate(1778.046 106.373)" fill="#fff"/>
  </g>
</svg>
