<svg xmlns="http://www.w3.org/2000/svg" width="72.186" height="72" viewBox="0 0 72.186 72">
  <g id="cello" transform="translate(-1594.198 -166.914)">
    <path id="Path_24" data-name="Path 24" d="M20.836,116.12q-.745,0-1.5-.068a20.022,20.022,0,0,1-12.3-5.938,20.014,20.014,0,0,1-5.94-12.3A14.383,14.383,0,0,1,5.072,86.149a27.029,27.029,0,0,1,5.282-4.267,1.078,1.078,0,0,1,1.625.872,3.219,3.219,0,0,0,.883,2.184,3.875,3.875,0,0,0,3.614.767,9.926,9.926,0,0,0,4.888-2.8c2.469-2.469,3.56-5.825,2.539-7.807a1.077,1.077,0,0,1,.208-1.27c.283-.276.577-.561.877-.862a13.574,13.574,0,1,1,19.2,19.2c-.3.3-.58.59-.854.875a1.085,1.085,0,0,1-1.273.214c-1.982-1.023-5.34.068-7.811,2.537a9.925,9.925,0,0,0-2.8,4.886,3.874,3.874,0,0,0,.765,3.616,3.253,3.253,0,0,0,2.186.881,1.08,1.08,0,0,1,.872,1.627A26.8,26.8,0,0,1,31,112.077a14.117,14.117,0,0,1-10.164,4.043M10.159,84.584a28.515,28.515,0,0,0-3.56,3.09,12.257,12.257,0,0,0-3.354,9.956,17.863,17.863,0,0,0,5.317,10.958A17.855,17.855,0,0,0,19.52,113.9a12.252,12.252,0,0,0,9.956-3.352,28.516,28.516,0,0,0,3.09-3.56,5.01,5.01,0,0,1-1.879-1.176,5.942,5.942,0,0,1-1.355-5.571,12.1,12.1,0,0,1,3.387-5.983c2.935-2.935,6.742-4.195,9.568-3.248.12-.124.245-.248.371-.377A11.417,11.417,0,1,0,26.514,74.49c-.126.126-.252.25-.377.373.945,2.824-.313,6.631-3.248,9.566A12.113,12.113,0,0,1,16.9,87.818a5.942,5.942,0,0,1-5.569-1.355,5.01,5.01,0,0,1-1.176-1.879" transform="translate(1593.169 122.794)" fill="#fff"/>
    <path id="Path_25" data-name="Path 25" d="M26.242,89.091c-.043,0-.083,0-.126-.008a1.084,1.084,0,0,1-.788-.5,11.486,11.486,0,0,0-3.653-3.655,1.076,1.076,0,0,1-.184-1.685L40.211,64.9A4.507,4.507,0,0,1,40,64.209a2.345,2.345,0,0,1,.827-2.551l6.2-4.6a4.668,4.668,0,0,1,6.085.547,4.724,4.724,0,0,1,.291,5.827l-4.6,6.2a2.349,2.349,0,0,1-2.551.827,4.111,4.111,0,0,1-.425-.118L27,88.782a1.083,1.083,0,0,1-.755.309m-2.314-5.216a13.306,13.306,0,0,1,1.3,1.149A13.464,13.464,0,0,1,26.4,86.348l17.437-17.08a12.684,12.684,0,0,1-2.5-2.446Zm22.18-15.733c.5.237.841.287.941.221l4.616-6.216a2.4,2.4,0,0,0-3.36-3.358l-6.2,4.6-.017.016c-.07.116,0,.54.332,1.155l.035.058a9.644,9.644,0,0,0,3.589,3.49c.021.01.041.021.062.033m-4.643-5.618h0Z" transform="translate(1612.12 110.737)" fill="#fff"/>
    <path id="Path_26" data-name="Path 26" d="M61.747,117.556a1.074,1.074,0,0,1-.763-.316L5.236,61.492a1.079,1.079,0,1,1,1.526-1.526L62.51,115.714a1.079,1.079,0,0,1-.763,1.842" transform="translate(1596.83 114.005)" fill="#fff"/>
  </g>
</svg>
