<svg xmlns="http://www.w3.org/2000/svg" width="72.004" height="72" viewBox="0 0 72.004 72">
  <g id="d-bass" transform="translate(-2025.015 -162.643)">
    <path id="Path_31" data-name="Path 31" d="M126.875,114.532a20.2,20.2,0,0,1-13.959-6.2,20.732,20.732,0,0,1-6.1-11.991,13.127,13.127,0,0,1,3.473-11.149,39.333,39.333,0,0,1,3.089-2.817,1.019,1.019,0,0,1,1.579.393,2.32,2.32,0,0,0,1.5,1.04c1.641.441,3.977-.1,6.1-1.408,3.569-2.205,5.02-5.463,4.135-7.121a1.886,1.886,0,0,0-.114-.187,1.021,1.021,0,0,1,.127-1.318l.7-.689a10.644,10.644,0,0,1,9.027-2.817A17.451,17.451,0,0,1,150.98,84.813a10.633,10.633,0,0,1-2.821,9.028l-.685.7a1.021,1.021,0,0,1-1.314.129,2.084,2.084,0,0,0-.193-.118c-1.654-.884-4.916.566-7.121,4.137-1.31,2.121-1.851,4.456-1.406,6.1a2.312,2.312,0,0,0,1.106,1.534,1.031,1.031,0,0,1,.327,1.547,39.13,39.13,0,0,1-2.817,3.089,12.739,12.739,0,0,1-9.181,3.578m-13.018-29.9c-.654.572-1.356,1.233-2.123,2a11.146,11.146,0,0,0-2.889,9.46,18.685,18.685,0,0,0,5.513,10.791c6.309,6.307,15.39,7.483,20.253,2.624.768-.768,1.43-1.47,2-2.124a4.635,4.635,0,0,1-1.145-2.069c-.592-2.2.022-5.077,1.643-7.7,2.519-4.076,6.571-6.206,9.438-5.044l.165-.171a8.628,8.628,0,0,0,2.238-7.34,15.41,15.41,0,0,0-12.764-12.766,8.643,8.643,0,0,0-7.338,2.235l-.175.173c1.165,2.861-.967,6.917-5.043,9.436-2.622,1.619-5.5,2.235-7.7,1.641a4.664,4.664,0,0,1-2.073-1.141m21.477,25.6h0Z" transform="translate(1918.319 120.111)" fill="#fff"/>
    <path id="Path_32" data-name="Path 32" d="M108.349,125.985a1.01,1.01,0,0,1-.72-.3,1.021,1.021,0,0,1,0-1.444l4.809-4.809a1.021,1.021,0,0,1,1.443,1.444l-4.809,4.809a1.011,1.011,0,0,1-.722.3m38.7-33.749c-.031,0-.059,0-.09,0a1.027,1.027,0,0,1-.764-.458,16.438,16.438,0,0,0-4.657-4.658,1.018,1.018,0,0,1-.14-1.6l21.679-20.461a1.018,1.018,0,0,1,.252-1.33l5.84-4.519-1.737-1.738a1.021,1.021,0,0,1,1.443-1.444l1.922,1.922L173.7,55.7a2.846,2.846,0,0,1,3.538.092c.028.024.143.13.167.158a2.891,2.891,0,0,1,.206,3.657l-2.251,2.907,1.92,1.924a1.02,1.02,0,1,1-1.443,1.443L174.1,64.144l-4.521,5.84a1.016,1.016,0,0,1-1.332.25L147.792,91.917a1.018,1.018,0,0,1-.742.32m-3.345-6.085a18.832,18.832,0,0,1,1.843,1.613,18.574,18.574,0,0,1,1.612,1.843l19.624-20.8L164.5,66.527ZM165.5,64.636l3.181,3.181,4.5-5.813a.54.54,0,0,1,.039-.051L176,58.361a.805.805,0,0,0-.026-.957.824.824,0,0,0-1.018-.086L171.36,60.1c-.015.013-.033.026-.051.04Z" transform="translate(1918.849 107.513)" fill="#fff"/>
  </g>
</svg>
