<svg xmlns="http://www.w3.org/2000/svg" width="52.247" height="72" viewBox="0 0 52.247 72">
  <g id="disk" transform="translate(-1828.907 -622.723)">
    <path id="Path_55" data-name="Path 55" d="M109.655,167.974H59.784a1.189,1.189,0,0,0-1.187,1.189v69.622a1.189,1.189,0,0,0,1.187,1.189h49.871a1.189,1.189,0,0,0,1.189-1.189V169.163a1.189,1.189,0,0,0-1.189-1.189M108.468,237.6h-47.5V170.352h47.5Z" transform="translate(1770.31 454.749)" fill="#fff"/>
    <path id="Path_56" data-name="Path 56" d="M99.111,191.6H63a1.189,1.189,0,0,0-1.189,1.189v12.791A1.189,1.189,0,0,0,63,206.768H99.111a1.189,1.189,0,0,0,1.187-1.189V192.788a1.189,1.189,0,0,0-1.187-1.189m-1.189,12.793H64.193V193.977H97.922Z" transform="translate(1773.973 481.64)" fill="#fff"/>
    <path id="Path_57" data-name="Path 57" d="M73.256,193a4.588,4.588,0,1,0,4.589,4.589A4.595,4.595,0,0,0,73.256,193m0,6.8a2.211,2.211,0,1,1,2.213-2.211,2.214,2.214,0,0,1-2.213,2.211" transform="translate(1781.773 483.235)" fill="#fff"/>
    <path id="Path_58" data-name="Path 58" d="M74.634,176.151a7.179,7.179,0,1,0,7.178,7.18,7.187,7.187,0,0,0-7.178-7.18m0,11.983a4.8,4.8,0,1,1,4.8-4.8,4.808,4.808,0,0,1-4.8,4.8" transform="translate(1780.394 464.056)" fill="#fff"/>
    <path id="Path_59" data-name="Path 59" d="M82.047,169.639a21.1,21.1,0,1,0,21.1,21.1,21.128,21.128,0,0,0-21.1-21.1m0,39.832a18.728,18.728,0,1,1,18.729-18.727,18.749,18.749,0,0,1-18.729,18.727" transform="translate(1772.982 456.644)" fill="#fff"/>
  </g>
</svg>
