<svg xmlns="http://www.w3.org/2000/svg" width="94.66" height="72" viewBox="0 0 94.66 72">
  <g id="drumkit" transform="translate(-2010.521 46.709)">
    <path id="Path_12" data-name="Path 12" d="M136.526,60.213A20.761,20.761,0,1,1,157.289,39.45a20.784,20.784,0,0,1-20.762,20.762m0-39.252A18.49,18.49,0,1,0,155.018,39.45a18.51,18.51,0,0,0-18.491-18.489" transform="translate(1920.564 -34.922)" fill="#fff"/>
    <path id="Path_13" data-name="Path 13" d="M159.315,39.41a1.136,1.136,0,0,1-1.086-.8A18.611,18.611,0,0,0,149.086,27.7a1.142,1.142,0,0,1-.577-.716l-1.7-6.366c-.577-2.155,4.485-4,8.834-5.162,1.253-.335,7.611-1.954,9.5-.867a1.5,1.5,0,0,1,.732.922l4.864,18.142c.579,2.159-4.485,4-8.834,5.164-.8.217-1.588.4-2.343.566a1.183,1.183,0,0,1-.237.025m-8.738-13.485a20.934,20.934,0,0,1,9.484,11.015c.407-.1.824-.2,1.245-.315a24.474,24.474,0,0,0,7.118-2.795l-4.643-17.316a24.619,24.619,0,0,0-7.558,1.137,24.454,24.454,0,0,0-7.114,2.795Zm17.956,8.318h0ZM163.67,16.1l0,0v0ZM121.941,39.085a1.14,1.14,0,0,1-.272-.035l-.9-.233c-1.253-.335-7.568-2.108-8.656-3.995a1.507,1.507,0,0,1-.172-1.169l4.857-18.14,0,0c.583-2.151,5.884-1.216,10.23-.053,1.255.337,7.57,2.108,8.658,4a1.5,1.5,0,0,1,.172,1.167l-1.49,5.569a1.136,1.136,0,0,1-.675.76A18.454,18.454,0,0,0,123.02,38.3a1.137,1.137,0,0,1-1.079.781m-7.695-5.254a24.123,24.123,0,0,0,6.979,2.758,20.709,20.709,0,0,1,11.1-11.524l1.235-4.618a24.43,24.43,0,0,0-7.112-2.795,24.522,24.522,0,0,0-7.562-1.137Zm19.421-13.8v0ZM118.993,16.1v0Z" transform="translate(1916.517 -39.589)" fill="#fff"/>
    <path id="Path_14" data-name="Path 14" d="M110.077,60.429a1.137,1.137,0,0,1-1.137-1.137V25.5a1.151,1.151,0,0,1,.194-.634L119.9,8.883a1.135,1.135,0,1,1,1.883,1.267l-10.565,15.7V59.293a1.137,1.137,0,0,1-1.137,1.137" transform="translate(1913.435 -45.689)" fill="#fff"/>
    <path id="Path_15" data-name="Path 15" d="M128.595,45.671a1.134,1.134,0,0,1-.754-.286l-11.4-10.117-11.4,10.117a1.137,1.137,0,1,1-1.511-1.7l12.15-10.776a1.086,1.086,0,0,1,.28-.188,1.138,1.138,0,0,1,.965,0,1.081,1.081,0,0,1,.284.19l12.148,10.776a1.136,1.136,0,0,1-.754,1.985" transform="translate(1907.379 -20.38)" fill="#fff"/>
    <path id="Path_16" data-name="Path 16" d="M133.832,20.748c-3.441,0-10.12-3.6-13.319-5.446-4.036-2.331-13.243-8.055-11.614-10.88a1.449,1.449,0,0,1,.785-.583c1.7-.47,13.123,2.071,15.47,3.426,1.809,1.045,5.379,4.941,6.432,6.111,4.831,5.375,4.549,5.865,4.156,6.544a2.031,2.031,0,0,1-1.909.828M111.656,6.153c1.335,1.435,4.575,4.052,9.991,7.182s9.3,4.622,11.217,5.064c-2.024-2.611-7.108-8.161-8.848-9.167s-9.087-2.631-12.36-3.079" transform="translate(1913.192 -50.491)" fill="#fff"/>
    <path id="Path_17" data-name="Path 17" d="M149.165,60.429a1.137,1.137,0,0,1-1.137-1.137V25.849l-10.565-15.7a1.136,1.136,0,0,1,1.885-1.267L150.108,24.87a1.151,1.151,0,0,1,.194.634V59.292a1.137,1.137,0,0,1-1.137,1.137" transform="translate(1943.022 -45.689)" fill="#fff"/>
    <path id="Path_18" data-name="Path 18" d="M161.893,45.671a1.125,1.125,0,0,1-.752-.286L149.733,35.268l-11.4,10.117a1.137,1.137,0,1,1-1.511-1.7l12.15-10.776a1.1,1.1,0,0,1,.282-.19,1.131,1.131,0,0,1,.478-.106h0a1.133,1.133,0,0,1,.48.106,1.081,1.081,0,0,1,.284.19l12.148,10.776a1.135,1.135,0,0,1-.752,1.985" transform="translate(1942.152 -20.38)" fill="#fff"/>
    <path id="Path_19" data-name="Path 19" d="M132.665,20.747a2.031,2.031,0,0,1-1.909-.828c-.393-.679-.675-1.169,4.156-6.544,1.053-1.169,4.622-5.066,6.429-6.111,2.351-1.355,13.791-3.89,15.472-3.426a1.428,1.428,0,0,1,.785.585c.693,1.2-.211,2.717-3.024,5.06a64.019,64.019,0,0,1-8.59,5.818c-3.2,1.846-9.878,5.446-13.319,5.446M154.842,6.153c-3.273.448-10.622,2.075-12.364,3.079s-6.822,6.556-8.846,9.167c1.914-.442,5.8-1.938,11.217-5.064s8.656-5.747,9.993-7.182" transform="translate(1936.013 -50.49)" fill="#fff"/>
  </g>
</svg>
