<svg xmlns="http://www.w3.org/2000/svg" width="68.396" height="72" viewBox="0 0 68.396 72">
  <g id="e-bass" transform="translate(-1807.565 59.01)">
    <path id="Path_7" data-name="Path 7" d="M69.085,63.051c-2.306,0-4.812-1.068-7.294-3.171-6.013-5.1-10.481-15.034-7.459-20.7,1.857-3.487,6.088-4.754,9.817-5.873a27.843,27.843,0,0,0,4.594-1.649c1.876-.977,3.4-6.662,4.222-9.714.361-1.342.646-2.4.909-3.061,1.592-4.131,3.957-5.294,5.487-5.049a2.671,2.671,0,0,1,2.128,2.742,14.016,14.016,0,0,1-1.871,6.672c-.962,2-1.792,3.728-1.257,5.529.283.67,3.384,4.032,6.091,6.747.67.66,1.9.318,3.7-.278,1.977-.653,4.69-1.55,5.972,1.03,1.447,4.307-2.686,5.936-6.33,7.372-2.41.949-4.9,1.932-6.349,3.545a20.374,20.374,0,0,0-3.653,7.034c-1.023,2.831-1.988,5.506-4.344,7.325a7.05,7.05,0,0,1-4.363,1.5m9.844-47.317c-.728,0-2.148,1-3.248,3.855-.227.564-.511,1.625-.843,2.854-1.353,5.037-2.768,9.666-5.2,10.931a28.988,28.988,0,0,1-4.931,1.789c-3.533,1.058-7.185,2.152-8.662,4.925-2.517,4.723,1.772,13.881,7,18.312,2.009,1.7,5.875,4.177,9.222,1.611,1.906-1.471,2.738-3.775,3.7-6.445A22.165,22.165,0,0,1,80,45.9c1.752-1.957,4.585-3.072,7.084-4.056,4.217-1.662,5.988-2.62,5.252-4.829-.408-.8-1.218-.707-3.574.073-1.923.639-4.108,1.363-5.676-.187l-.005-.005c-2.3-2.311-6.22-6.367-6.578-7.566-.75-2.52.326-4.758,1.368-6.922a12.321,12.321,0,0,0,1.681-5.761c-.009-.246-.079-.829-.51-.9a.768.768,0,0,0-.113-.009" transform="translate(1754.203 -50.061)" fill="#fff"/>
    <path id="Path_8" data-name="Path 8" d="M72,40.583H72a.982.982,0,0,1-.689-.3c-1.681-1.738-3.023-3.175-3.992-4.271a.972.972,0,0,1,.04-1.328L94.676,7.366a.968.968,0,0,1,1.37,0l4.1,4.1a.969.969,0,0,1,0,1.372L72.69,40.3a.976.976,0,0,1-.686.284M69.376,35.41c.724.8,1.607,1.742,2.641,2.819L98.093,12.154l-2.731-2.73Z" transform="translate(1764.421 -55.067)" fill="#fff"/>
    <path id="Path_9" data-name="Path 9" d="M88.441,18.36a.962.962,0,0,1-.7-.3l-4.979-5.157a.954.954,0,0,1-.271-.649l.969-.024h-.97l-.044-1.927a.966.966,0,0,1,.358-.773c1.567-1.274,3.438-2.588,5.248-3.857C89.837,4.423,91.678,3.13,93.193,1.9,95.68.013,98.066.737,99.244,2.2a3.576,3.576,0,0,1-.445,5.04.968.968,0,0,1-.232.147C94.837,9.073,94.237,11,93.6,13.031s-1.285,4.11-4.859,5.28a.951.951,0,0,1-.3.049m-4.018-6.527,4.28,4.433c2.126-.86,2.518-2.119,3.047-3.814.66-2.11,1.477-4.73,5.878-6.77a1.631,1.631,0,0,0,.1-2.269c-.581-.721-1.806-1.152-3.344.012-1.539,1.253-3.41,2.566-5.22,3.836-1.641,1.152-3.33,2.337-4.77,3.48Z" transform="translate(1775.881 -59.775)" fill="#fff"/>
  </g>
</svg>
