<svg xmlns="http://www.w3.org/2000/svg" width="71.056" height="72" viewBox="0 0 71.056 72">
  <g id="e-guitar" transform="translate(-545.017 -989.989)">
    <path id="Path_10" data-name="Path 10" d="M17.409,68.317c-3.906,0-8.033-2.3-11.119-5.36C.069,56.78-1.517,51.076,1.441,45.518c1.929-3.62,6.113-4.813,9.806-5.867a26.517,26.517,0,0,0,4.763-1.67c1.512-.788,2.077-3.681,2.577-6.233a15.492,15.492,0,0,1,1.463-4.88c1.789-2.836,7.265-4.6,10.331-4.006a2.776,2.776,0,0,1,2.526,2.182c.527,2.906-3.078,4.685-5.465,5.863l-.646.322c-1.018.6-1.032,2.756-.741,3.734a6.365,6.365,0,0,0,.8,1.09l27.82-27.82a1,1,0,0,1,1.422,0l3.354,3.352a1.005,1.005,0,0,1,0,1.423L31.434,41.022c.331.339.661.674.987,1,.458.453,1.239.471,2.685.076,1.228-.337,2.611-2.057,3.723-3.439,1.239-1.537,2.139-2.631,3.229-2.608a1.54,1.54,0,0,1,1.221.7,4.511,4.511,0,0,1,1.059,3.461,12.475,12.475,0,0,1-4.569,8.183,14.063,14.063,0,0,1-4.811,2.341,13.117,13.117,0,0,0-4.1,1.9c-2.465,1.9-3.316,4.531-4.14,7.073-.8,2.475-1.63,5.036-3.913,6.8a8.688,8.688,0,0,1-5.4,1.809M29.042,24.755c-2.466,0-6.139,1.36-7.289,3.183a14.549,14.549,0,0,0-1.192,4.2c-.587,3-1.251,6.4-3.623,7.631a27.6,27.6,0,0,1-5.139,1.82c-3.468.991-7.055,2.014-8.582,4.88C.732,51.134,2.2,56.061,7.707,61.528c3.839,3.808,9.818,6.492,13.876,3.384,1.787-1.38,2.454-3.439,3.225-5.822.875-2.7,1.867-5.764,4.824-8.047a14.855,14.855,0,0,1,4.692-2.218,12.2,12.2,0,0,0,4.163-1.985A10.509,10.509,0,0,0,42.33,40.1a2.938,2.938,0,0,0-.442-1.885,17.442,17.442,0,0,0-1.49,1.708c-1.362,1.691-2.9,3.609-4.759,4.118-1.565.431-3.337.7-4.634-.587L31,43.447c-2.407-2.416-6.5-6.655-6.874-7.908-.42-1.407-.556-4.746,1.706-6.074l.721-.36c1.617-.8,4.63-2.287,4.375-3.7-.06-.328-.54-.487-.929-.563a5.054,5.054,0,0,0-.956-.083m-.84,12.8c.6.672,1.257,1.382,1.847,2.01L57.313,12.3l-1.93-1.929Zm13.531.476Z" transform="translate(545.017 993.672)" fill="#fff"/>
    <path id="Path_11" data-name="Path 11" d="M35.749,19.546a1,1,0,0,1-.724-.308l-5.2-5.391a1,1,0,0,1-.282-.675l-.047-2.037a1,1,0,0,1,.371-.8L39.53,2.478a.954.954,0,0,1,.17-.112c3.075-1.6,5.88-.775,6.955.817a3,3,0,0,1-.824,4.082c-3.689,3.886-4.14,5.012-5.237,10.22a1.008,1.008,0,0,1-.672.75L36.063,19.5a.986.986,0,0,1-.313.051m-4.208-6.814,4.493,4.656,2.713-.887c1.09-5.058,1.771-6.559,5.7-10.695.487-.426.905-.96.541-1.5-.482-.715-2.168-1.259-4.272-.2l-9.2,7.475Z" transform="translate(568.929 988.488)" fill="#fff"/>
  </g>
</svg>
