<svg xmlns="http://www.w3.org/2000/svg" width="77.979" height="72" viewBox="0 0 77.979 72">
  <g id="earphone" transform="translate(-2252.643 -613.048)">
    <path id="Path_50" data-name="Path 50" d="M225.8,237.6a7.851,7.851,0,0,1-7.841-7.841v-15.8a7.837,7.837,0,0,1,13.15-5.766v-3.6a29.591,29.591,0,0,0-59.181,0v3.6a7.838,7.838,0,0,1,13.147,5.769v15.8a7.842,7.842,0,0,1-15.4,2.079h-5.878a1.267,1.267,0,0,1-1.265-1.266V204.589a38.989,38.989,0,0,1,77.979,0v25.984a1.267,1.267,0,0,1-1.268,1.266H233.36A7.856,7.856,0,0,1,225.8,237.6m0-28.953a5.313,5.313,0,0,0-5.308,5.308v15.8a5.308,5.308,0,0,0,10.616,0v-15.8a5.313,5.313,0,0,0-5.308-5.308M171.926,229.76a5.307,5.307,0,0,0,10.614,0v-15.8a5.307,5.307,0,1,0-10.614,0Zm61.714-.454h4.33V204.589a36.455,36.455,0,1,0-72.91,0v24.717h4.33V204.589a32.125,32.125,0,1,1,64.25,0Z" transform="translate(2090.116 447.447)" fill="#fff"/>
  </g>
</svg>
