<svg xmlns="http://www.w3.org/2000/svg" width="22" height="24" viewBox="0 0 22 24">
  <g id="for-back" transform="translate(-471 -631)">
    <g id="Group_3" data-name="Group 3" transform="translate(-36)">
      <path id="Polygon_3" data-name="Polygon 3" d="M11.143,1.429a1,1,0,0,1,1.715,0L23.091,18.486A1,1,0,0,1,22.234,20H1.766a1,1,0,0,1-.857-1.514Z" transform="translate(527 631) rotate(90)" fill="#eaeaea"/>
    </g>
    <g id="Path_5" data-name="Path 5" transform="translate(491 631)" fill="#eaeaea">
      <path d="M 1 23.5 C 0.7243000268936157 23.5 0.5 23.27569961547852 0.5 23 L 0.5 1 C 0.5 0.7243000268936157 0.7243000268936157 0.5 1 0.5 C 1.275699973106384 0.5 1.5 0.7243000268936157 1.5 1 L 1.5 23 C 1.5 23.27569961547852 1.275699973106384 23.5 1 23.5 Z" stroke="none"/>
      <path d="M 1 1 L 1 23 L 1.001260042190552 1.000049591064453 C 1.001260042190552 1.000049591064453 1.000859975814819 1 1 1 M 1 0 C 1.552279949188232 0 2 0.4477195739746094 2 1 L 2 23 C 2 23.55228042602539 1.552279949188232 24 1 24 C 0.4477200508117676 24 0 23.55228042602539 0 23 L 0 1 C 0 0.4477195739746094 0.4477200508117676 0 1 0 Z" stroke="none" fill="#fff"/>
    </g>
  </g>
</svg>
