<svg xmlns="http://www.w3.org/2000/svg" width="88.933" height="72" viewBox="0 0 88.933 72">
  <g id="g-piano" transform="translate(-2233.248 -170.377)">
    <path id="Path_33" data-name="Path 33" d="M182.5,118.244a1.126,1.126,0,0,1-.8-.33l-17.408-17.408A22.265,22.265,0,0,1,188.374,64.12l1.465.6c8.12,3.32,13.019,5.322,21.583-3.245a14.508,14.508,0,0,1,11.383-4.409,17.746,17.746,0,0,1,11.231,5.4,16.856,16.856,0,0,1,1.55,1.786,1.131,1.131,0,0,1-.1,1.479L183.3,117.914a1.124,1.124,0,0,1-.8.33m-2.47-53.487a20.006,20.006,0,0,0-14.138,34.15L182.5,115.515l50.669-50.669c-.234-.273-.478-.533-.728-.785a15.51,15.51,0,0,0-9.784-4.745,12.183,12.183,0,0,0-9.634,3.754c-9.634,9.632-15.992,7.029-24.036,3.74l-1.457-.592a20.011,20.011,0,0,0-7.5-1.461M165.09,69.823h0Z" transform="translate(2075.478 113.35)" fill="#fff"/>
    <path id="Path_34" data-name="Path 34" d="M181.282,125.639a1.128,1.128,0,0,1-.8-.33L169.7,114.527a1.13,1.13,0,0,1,0-1.6l52.3-52.3a1.135,1.135,0,0,1,1.6,0l10.779,10.783a1.131,1.131,0,0,1,0,1.6l-52.295,52.3a1.124,1.124,0,0,1-.8.33M172.1,113.727l9.184,9.184,50.7-50.7L222.8,63.029Z" transform="translate(2087.476 116.737)" fill="#fff"/>
    <path id="Path_35" data-name="Path 35" d="M179.018,115.665a1.131,1.131,0,0,1-.8-.332l-6.621-6.623a1.13,1.13,0,1,1,1.6-1.6l6.623,6.623a1.131,1.131,0,0,1-.8,1.931m2.865-2.867a1.124,1.124,0,0,1-.8-.33l-6.623-6.623a1.13,1.13,0,1,1,1.6-1.6l6.623,6.623a1.129,1.129,0,0,1-.8,1.929m2.865-2.865a1.118,1.118,0,0,1-.8-.332l-6.623-6.62a1.131,1.131,0,0,1,1.6-1.6L185.547,108a1.131,1.131,0,0,1,0,1.6,1.119,1.119,0,0,1-.8.332m5.284-5.284a1.129,1.129,0,0,1-.8-.33L182.612,97.7a1.13,1.13,0,0,1,1.6-1.6l6.622,6.623a1.129,1.129,0,0,1-.8,1.929m2.865-2.865a1.124,1.124,0,0,1-.8-.33l-6.623-6.623a1.13,1.13,0,1,1,1.6-1.6l6.623,6.621a1.13,1.13,0,0,1-.8,1.931m5.552-5.55a1.123,1.123,0,0,1-.8-.332l-6.623-6.623a1.13,1.13,0,1,1,1.6-1.6l6.623,6.623a1.131,1.131,0,0,1,0,1.6,1.118,1.118,0,0,1-.8.332m2.865-2.867a1.123,1.123,0,0,1-.8-.332l-6.621-6.621a1.13,1.13,0,0,1,1.6-1.6l6.623,6.621a1.135,1.135,0,0,1,0,1.6,1.123,1.123,0,0,1-.8.332m2.865-2.865a1.118,1.118,0,0,1-.8-.332l-6.623-6.623a1.129,1.129,0,1,1,1.6-1.6l6.623,6.623a1.129,1.129,0,0,1-.8,1.929m5.284-5.282a1.131,1.131,0,0,1-.8-.332l-6.623-6.623a1.131,1.131,0,0,1,1.6-1.6l6.621,6.623a1.131,1.131,0,0,1-.8,1.931m2.865-2.867a1.124,1.124,0,0,1-.8-.33L204.906,75.4a1.13,1.13,0,0,1,1.6-1.6l6.623,6.623a1.129,1.129,0,0,1-.8,1.929m5.552-5.55a1.119,1.119,0,0,1-.8-.332l-6.623-6.625a1.129,1.129,0,0,1,1.6-1.6l6.623,6.625a1.13,1.13,0,0,1-.8,1.929m2.865-2.865a1.131,1.131,0,0,1-.8-.332l-6.623-6.625a1.129,1.129,0,0,1,1.6-1.6l6.623,6.623a1.131,1.131,0,0,1-.8,1.931m2.865-2.867a1.123,1.123,0,0,1-.8-.332l-6.621-6.621a1.131,1.131,0,1,1,1.6-1.6l6.623,6.623a1.135,1.135,0,0,1,0,1.6,1.123,1.123,0,0,1-.8.332" transform="translate(2089.442 118.692)" fill="#fff"/>
  </g>
</svg>
