<svg xmlns="http://www.w3.org/2000/svg" width="72" height="72" viewBox="0 0 72 72">
  <g id="keyboard" transform="translate(-2235.156 62.128)">
    <path id="Path_20" data-name="Path 20" d="M179.625,72a.932.932,0,0,1-.66-.274L168.739,61.5l0,0L158.511,51.273a.939.939,0,0,1,0-1.323L208.186.274a.934.934,0,0,1,1.321,0l20.455,20.455a.931.931,0,0,1,0,1.323L180.289,71.726a.94.94,0,0,1-.663.274m-8.9-11.162,8.9,8.9,48.353-48.351-8.9-8.905ZM160.5,50.611l8.9,8.9,48.354-48.351-8.905-8.905Z" transform="translate(2076.918 -62.128)" fill="#fff"/>
    <path id="Path_21" data-name="Path 21" d="M172.625,56.013a.936.936,0,0,1-.661-.274l-5.477-5.479a.935.935,0,0,1,1.321-1.323l5.479,5.479a.936.936,0,0,1-.661,1.6M175,53.641a.93.93,0,0,1-.66-.273l-5.48-5.479a.935.935,0,1,1,1.321-1.323l5.48,5.479a.935.935,0,0,1-.661,1.6m2.37-2.37a.925.925,0,0,1-.66-.274l-5.48-5.479a.935.935,0,0,1,1.321-1.323l5.48,5.479a.936.936,0,0,1,0,1.323.926.926,0,0,1-.661.274m4.369-4.371a.93.93,0,0,1-.66-.273L175.6,41.149a.935.935,0,0,1,1.321-1.323L182.4,45.3a.934.934,0,0,1-.661,1.6m2.37-2.37a.925.925,0,0,1-.66-.274l-5.479-5.477a.935.935,0,0,1,1.321-1.323l5.479,5.477a.936.936,0,0,1-.661,1.6m4.593-4.592a.929.929,0,0,1-.661-.274l-5.479-5.48a.935.935,0,1,1,1.323-1.321l5.477,5.479a.936.936,0,0,1,0,1.323.925.925,0,0,1-.66.274m2.372-2.372a.929.929,0,0,1-.661-.274l-5.477-5.477a.935.935,0,1,1,1.321-1.325l5.479,5.479a.939.939,0,0,1,0,1.323.929.929,0,0,1-.661.274m2.37-2.37a.925.925,0,0,1-.66-.274l-5.48-5.479a.935.935,0,0,1,1.321-1.323L194.1,33.6a.936.936,0,0,1-.661,1.6m4.371-4.371a.934.934,0,0,1-.661-.273l-5.48-5.479a.935.935,0,1,1,1.323-1.323l5.479,5.477a.936.936,0,0,1,0,1.323.925.925,0,0,1-.66.274m2.368-2.37a.925.925,0,0,1-.66-.274L194.043,22.7a.934.934,0,1,1,1.321-1.321l5.477,5.479a.935.935,0,0,1-.661,1.6m4.595-4.593a.931.931,0,0,1-.661-.273l-5.48-5.479a.935.935,0,0,1,1.321-1.323l5.48,5.479a.935.935,0,0,1-.66,1.6m2.37-2.37a.934.934,0,0,1-.661-.273L201,15.743a.935.935,0,1,1,1.321-1.323L207.8,19.9a.935.935,0,0,1-.66,1.6m2.37-2.37a.929.929,0,0,1-.661-.274l-5.477-5.479a.935.935,0,1,1,1.321-1.323l5.479,5.48a.935.935,0,0,1-.661,1.6" transform="translate(2082.366 -54.085)" fill="#fff"/>
    <path id="Path_22" data-name="Path 22" d="M177.416,31.224a.928.928,0,0,1-.661-.274l-5.332-5.332a.936.936,0,0,1,0-1.323l11.11-11.11a.934.934,0,0,1,1.321,0l5.334,5.334a.935.935,0,0,1,0,1.323L178.076,30.952a.929.929,0,0,1-.66.273M173.4,24.956l4.011,4.011,9.787-9.789-4.011-4.011Z" transform="translate(2085.738 -53.309)" fill="#fff"/>
    <path id="Path_23" data-name="Path 23" d="M197.14,17.488a.934.934,0,0,1-.661-.273L191,11.737a.935.935,0,1,1,1.321-1.323l5.479,5.477a.935.935,0,0,1-.66,1.6m2.37-2.37a.929.929,0,0,1-.661-.274l-5.477-5.477a.935.935,0,1,1,1.321-1.325l5.479,5.479a.939.939,0,0,1,0,1.323.929.929,0,0,1-.661.274" transform="translate(2099.112 -56.82)" fill="#fff"/>
  </g>
</svg>
