<svg xmlns="http://www.w3.org/2000/svg" width="71.885" height="72" viewBox="0 0 71.885 72">
  <g id="long-drum" transform="translate(-1593.512 -383.365)">
    <path id="Path_36" data-name="Path 36" d="M17.695,181.267c-2.793,0-7.528-3.887-10.269-6.626-3.308-3.31-8.291-9.532-5.967-11.858,8.821-12.334,29.743-41.53,44.175-52.932,2.734-2.757,11.848,4.856,16.788,9.794,4.908,4.906,12.447,13.938,9.762,16.827C60.746,150.92,31.6,171.8,19.149,180.719a1.958,1.958,0,0,1-1.454.548m25.067-66.113c-13.877,12.986-31.655,37.793-39.685,49-.368.828,1.412,4.54,5.854,8.982s8.147,6.226,8.9,5.927c10.335-7.419,36-25.8,49.083-39.768-1.872-3.6-5.889-8.68-10.674-13.467-1.979-1.977-4.007-3.824-5.959-5.442L38.64,132.511a1.065,1.065,0,0,1-1.536-1.475l11.507-11.988a40.1,40.1,0,0,0-5.848-3.894m1.668-1.519a67.185,67.185,0,0,1,13.311,10.691,67.145,67.145,0,0,1,10.687,13.3c.762-.86,1.471-1.7,2.115-2.517.023-.027.044-.052.069-.077.458-1.011-2.448-6.639-9.7-13.886-7.27-7.268-12.894-10.17-13.9-9.691q-1.261,1-2.59,2.176" transform="translate(1592.651 274.099)" fill="#fff"/>
    <path id="Path_37" data-name="Path 37" d="M27.175,134.963a1.064,1.064,0,0,1-.737-1.831l12.834-12.323a1.064,1.064,0,1,1,1.475,1.534L27.912,134.666a1.065,1.065,0,0,1-.738.3" transform="translate(1615.768 284.395)" fill="#fff"/>
  </g>
</svg>
