<svg xmlns="http://www.w3.org/2000/svg" width="34.705" height="72" viewBox="0 0 34.705 72">
  <g id="mic" transform="translate(-1634.298 -603.303)">
    <path id="Path_51" data-name="Path 51" d="M36.343,212.941H20.09a9.236,9.236,0,0,1-9.225-9.225V172.438a9.237,9.237,0,0,1,9.225-9.227H36.343a9.237,9.237,0,0,1,9.227,9.227v31.279a9.237,9.237,0,0,1-9.227,9.225M20.09,165.411a7.034,7.034,0,0,0-7.025,7.026v31.279a7.032,7.032,0,0,0,7.025,7.025H36.343a7.032,7.032,0,0,0,7.027-7.025V172.438a7.034,7.034,0,0,0-7.027-7.026Z" transform="translate(1623.433 440.092)" fill="#fff"/>
    <path id="Path_52" data-name="Path 52" d="M27.128,200.548H17.822a1.1,1.1,0,0,1-1.1-1.1V188.311a1.1,1.1,0,0,1,1.1-1.1h9.306a1.1,1.1,0,0,1,1.1,1.1v11.136a1.1,1.1,0,0,1-1.1,1.1m-8.207-2.2h7.106V189.41H18.921Z" transform="translate(1629.174 463.621)" fill="#fff"/>
    <path id="Path_53" data-name="Path 53" d="M44.471,190.23H33.036a1.1,1.1,0,0,1,0-2.2H44.471a1.1,1.1,0,0,1,0,2.2m-21.074,0H11.966a1.1,1.1,0,1,1,0-2.2H23.4a1.1,1.1,0,1,1,0,2.2m21.074-6.314H33.036a1.1,1.1,0,0,1,0-2.2H44.471a1.1,1.1,0,0,1,0,2.2m-21.074,0H11.966a1.1,1.1,0,1,1,0-2.2H23.4a1.1,1.1,0,1,1,0,2.2M44.471,177.6H33.036a1.1,1.1,0,0,1,0-2.2H44.471a1.1,1.1,0,0,1,0,2.2m-21.074,0H11.966a1.1,1.1,0,1,1,0-2.2H23.4a1.1,1.1,0,1,1,0,2.2m21.074-6.316H33.036a1.1,1.1,0,0,1,0-2.2H44.471a1.1,1.1,0,0,1,0,2.2m-21.074,0H11.966a1.1,1.1,0,1,1,0-2.2H23.4a1.1,1.1,0,1,1,0,2.2" transform="translate(1623.433 445.851)" fill="#fff"/>
    <path id="Path_54" data-name="Path 54" d="M31.6,192.833H16.311a1.1,1.1,0,0,0-1.1,1.1v11.134a1.1,1.1,0,0,0,1.1,1.1H31.6a1.1,1.1,0,0,0,1.1-1.1V193.934a1.1,1.1,0,0,0-1.1-1.1m-1.1,11.136H17.412v-8.934H30.5Z" transform="translate(1627.693 469.134)" fill="#fff"/>
  </g>
</svg>
