<svg xmlns="http://www.w3.org/2000/svg" width="77.754" height="72" viewBox="0 0 77.754 72">
  <g id="mixer" transform="translate(-2038.357 -615.787)">
    <path id="Path_43" data-name="Path 43" d="M186.4,238.273H111.293a1.324,1.324,0,0,1-1.324-1.322V167.6a1.324,1.324,0,0,1,1.324-1.324H186.4a1.324,1.324,0,0,1,1.324,1.324v69.354a1.324,1.324,0,0,1-1.324,1.322m-73.784-2.646h72.46V168.919h-72.46Z" transform="translate(1928.388 449.514)" fill="#fff"/>
    <path id="Path_44" data-name="Path 44" d="M116.65,224.064a1.324,1.324,0,0,1-1.324-1.322V189.266a1.324,1.324,0,0,1,2.648,0v33.476a1.324,1.324,0,0,1-1.324,1.322m0-38.858a1.324,1.324,0,0,1-1.324-1.324V170.766a1.324,1.324,0,1,1,2.648,0v13.115a1.324,1.324,0,0,1-1.324,1.324" transform="translate(1935.79 453.893)" fill="#fff"/>
    <path id="Path_45" data-name="Path 45" d="M126.162,182.981H114.123a1.324,1.324,0,0,1-1.324-1.324v-5.385a1.324,1.324,0,0,1,1.324-1.322h12.039a1.323,1.323,0,0,1,1.322,1.322v5.385a1.324,1.324,0,0,1-1.322,1.324m-10.715-2.648h9.391V177.6h-9.391Z" transform="translate(1932.298 461.502)" fill="#fff"/>
    <path id="Path_46" data-name="Path 46" d="M127.061,224.064a1.324,1.324,0,0,1-1.324-1.324V204.718a1.324,1.324,0,0,1,2.648,0v18.021a1.324,1.324,0,0,1-1.324,1.324m0-23.406a1.324,1.324,0,0,1-1.324-1.324V170.764a1.324,1.324,0,0,1,2.648,0v28.569a1.324,1.324,0,0,1-1.324,1.324" transform="translate(1950.173 453.893)" fill="#fff"/>
    <path id="Path_47" data-name="Path 47" d="M136.573,189.469H124.534a1.324,1.324,0,0,1-1.324-1.324v-5.382a1.324,1.324,0,0,1,1.324-1.324h12.039a1.324,1.324,0,0,1,1.322,1.324v5.382a1.324,1.324,0,0,1-1.322,1.324m-10.715-2.646h9.391v-2.736h-9.391Z" transform="translate(1946.682 470.466)" fill="#fff"/>
    <path id="Path_48" data-name="Path 48" d="M137.472,224.064a1.322,1.322,0,0,1-1.324-1.322V196.995a1.324,1.324,0,1,1,2.648,0v25.747a1.324,1.324,0,0,1-1.324,1.322m0-31.132a1.323,1.323,0,0,1-1.324-1.324V170.764a1.324,1.324,0,0,1,2.648,0v20.844a1.324,1.324,0,0,1-1.324,1.324" transform="translate(1964.557 453.893)" fill="#fff"/>
    <path id="Path_49" data-name="Path 49" d="M146.982,186.227H134.943a1.324,1.324,0,0,1-1.322-1.324v-5.385a1.324,1.324,0,0,1,1.322-1.324h12.039a1.324,1.324,0,0,1,1.324,1.324V184.9a1.324,1.324,0,0,1-1.324,1.324m-10.715-2.646h9.391v-2.739h-9.391Z" transform="translate(1961.066 465.984)" fill="#fff"/>
  </g>
</svg>
