<svg xmlns="http://www.w3.org/2000/svg" width="72.003" height="72" viewBox="0 0 72.003 72">
  <g id="percussion" transform="translate(-2027.737 -382.802)">
    <path id="Path_39" data-name="Path 39" d="M133.629,181.129c-3.448,0-6.642-2.067-8.876-3.933a8.154,8.154,0,0,1-9.4-11.938,35.563,35.563,0,0,1-3.222-10.28,8.148,8.148,0,0,1-2.385-13.18v0a8.147,8.147,0,0,1,3.262-1.991,35.486,35.486,0,0,1,4.426-9.856,8.151,8.151,0,0,1,10.75-10.748,35.461,35.461,0,0,1,9.856-4.428,8.153,8.153,0,0,1,15.175-.877,35.584,35.584,0,0,1,10.28,3.224,8.151,8.151,0,0,1,11.936,9.4c2.414,2.889,5.156,7.376,3.349,11.936-2.235,5.635-10.417,7.788-15.833,9.213l-1.862.489c-2.9.753-8.928,2.315-10.655,4.04s-3.283,7.743-4.034,10.634l-.5,1.891c-1.423,5.413-3.576,13.595-9.209,15.826a8.284,8.284,0,0,1-3.062.586m-9.985-7.849c.03.032.063.063.1.1,4.835,4.831,8.817,6.537,12.17,5.2,4.643-1.839,6.63-9.4,7.948-14.4l.495-1.883c1.189-4.58,2.619-9.631,4.589-11.6s7.026-3.4,11.613-4.591l1.86-.487c5-1.316,12.562-3.307,14.4-7.95,1.329-3.357-.373-7.338-5.206-12.17q-.491-.5-1.008-.97a33.808,33.808,0,0,0-7.533-5.249,1.105,1.105,0,0,1-.12-.072,33.478,33.478,0,0,0-10.508-3.29c-.038,0-.08,0-.12-.009a33.982,33.982,0,0,0-4.295-.32c-.738-.009-1.5.01-2.244.048a34.1,34.1,0,0,0-6.626,1.037,1.093,1.093,0,0,1-.154.029,33.457,33.457,0,0,0-10.065,4.53c-.027.021-.053.04-.082.059a34,34,0,0,0-4.268,3.389c-.283.262-.559.531-.833.8l-.017.017c-.274.276-.544.553-.806.835a34.059,34.059,0,0,0-3.4,4.283c-.021.029-.042.057-.063.084a33.453,33.453,0,0,0-4.528,10.061,1.075,1.075,0,0,1-.029.156,34.191,34.191,0,0,0-1.038,6.681c-.032.609-.048,1.223-.048,1.837,0,.12,0,.242,0,.361a33.864,33.864,0,0,0,.32,4.285c.006.042.006.08.009.122a33.443,33.443,0,0,0,3.287,10.5,1.051,1.051,0,0,1,.076.126,33.733,33.733,0,0,0,6.118,8.439l.006.008m-7.031-5.685a6.042,6.042,0,0,0,6.187,7.826c-.209-.205-.4-.392-.555-.552a36.062,36.062,0,0,1-5.632-7.275m-5.373-24.3a6.021,6.021,0,0,0,.588,9.049q-.094-1.173-.112-2.36c-.011-.879,0-1.757.057-2.632a35.557,35.557,0,0,1,.628-4.964,6.043,6.043,0,0,0-1.16.907m13.669-22.669a6.017,6.017,0,0,0-5.943,7.146,35.349,35.349,0,0,1,2.452-2.908q.408-.434.827-.854l.017-.019q.422-.419.856-.825a36.718,36.718,0,0,1,2.891-2.438,5.94,5.94,0,0,0-1.1-.1m48.2,3.384c.16.16.344.344.55.555a6.042,6.042,0,0,0-7.826-6.189,35.905,35.905,0,0,1,6.284,4.679c.337.312.669.63.993.955M145.8,111.239a6.017,6.017,0,0,0-5.171,2.923,36.1,36.1,0,0,1,4.918-.626c.886-.051,1.778-.074,2.667-.057q1.193.017,2.37.11a5.731,5.731,0,0,0-.515-.586,6.022,6.022,0,0,0-4.268-1.765m-12.2,64.513c-1.906,0-4.441-1.567-7.558-4.679-.057-.055-.11-.112-.165-.167l0,0-.009-.01-.011-.013h0a30.582,30.582,0,0,1-5.666-8c-.013-.03-.029-.063-.04-.1a30.617,30.617,0,0,1-2.665-8.486c-.011-.048-.021-.1-.03-.145a30.9,30.9,0,0,1,.751-12.922.609.609,0,0,1,.044-.129,30.419,30.419,0,0,1,7.777-13.279l.017-.019.019-.017a30.392,30.392,0,0,1,13.283-7.781,1.01,1.01,0,0,1,.127-.044,30.874,30.874,0,0,1,12.924-.753.963.963,0,0,1,.154.036,30.571,30.571,0,0,1,8.477,2.661,1.035,1.035,0,0,1,.1.042,30.483,30.483,0,0,1,8.19,5.856l0,0c3.756,3.756,5.261,6.672,4.473,8.663-1.09,2.75-6.636,4.542-12.469,6.067l-1.83.481c-4.272,1.113-10.116,2.638-12.853,5.373s-4.262,8.585-5.375,12.855l-.483,1.837c-1.523,5.827-3.317,11.372-6.065,12.461a2.962,2.962,0,0,1-1.109.2m-3.463-3.857c1.868,1.445,3.2,1.93,3.791,1.689,1.417-.561,3.034-4.274,4.8-11.033l.483-1.833c1.175-4.506,2.783-10.674,5.926-13.816s9.31-4.751,13.816-5.924l1.828-.481c6.763-1.769,10.478-3.384,11.039-4.8.238-.6-.245-1.925-1.689-3.794a8.148,8.148,0,0,1-10.62-8.363,28.345,28.345,0,0,0-6.706-2.1,8.159,8.159,0,0,1-12.769,1.6,7.888,7.888,0,0,1-.717-.816,28.287,28.287,0,0,0-6.43,2.878,8.15,8.15,0,0,1-9.557,9.559,28.226,28.226,0,0,0-2.878,6.428,8.541,8.541,0,0,1,.816.715,8.158,8.158,0,0,1,0,11.526,7.921,7.921,0,0,1-1.6,1.244,28.669,28.669,0,0,0,2.1,6.71,8.151,8.151,0,0,1,8.368,10.618m-2.6-2.317c.27.268.54.527.8.774a6.035,6.035,0,0,0-5.5-6.969,28.433,28.433,0,0,0,4.7,6.195m-7.678-26.2a28.646,28.646,0,0,0-.514,8.848c.15-.126.293-.255.432-.392a6.051,6.051,0,0,0,.082-8.456m4.787-10.691a6.028,6.028,0,0,0,6.276-6.274,28.509,28.509,0,0,0-3.385,2.891,28.8,28.8,0,0,0-2.891,3.384m36.977-8.081a6.035,6.035,0,0,0,6.969,5.5c-.247-.264-.5-.531-.774-.8l0,0a28.578,28.578,0,0,0-6.191-4.7m-20.01-2.982a6.046,6.046,0,0,0,8.452-.08,5.569,5.569,0,0,0,.392-.432,28.614,28.614,0,0,0-8.844.512" transform="translate(1920.373 273.674)" fill="#fff"/>
  </g>
</svg>
