<svg xmlns="http://www.w3.org/2000/svg" width="20" height="24" viewBox="0 0 20 24">
  <g id="repeat" transform="translate(0.001 0)">
    <g id="Group_13" data-name="Group 13" transform="translate(-0.001 0)">
      <path id="Path_3" data-name="Path 3" d="M13.754.315l-.012.01a.98.98,0,0,0,0,1.527l1.991,1.716H2.5A2.348,2.348,0,0,0,0,5.733V7.9A1.171,1.171,0,0,0,1.247,8.978h.006A1.173,1.173,0,0,0,2.5,7.9V5.733H15.736L13.754,7.446a.982.982,0,0,0,0,1.527,1.39,1.39,0,0,0,1.764,0l4.118-3.565a.986.986,0,0,0,0-1.527L15.518.315a1.39,1.39,0,0,0-1.764,0" transform="translate(0.002 0)" fill="#eaeaea"/>
      <path id="Path_4" data-name="Path 4" d="M17.5,7.857H4.264L6.245,6.141a.979.979,0,0,0,0-1.524,1.383,1.383,0,0,0-1.764,0L.364,8.182a.979.979,0,0,0,0,1.524l4.118,3.568a1.39,1.39,0,0,0,1.764,0v0a.979.979,0,0,0,0-1.524L4.264,10.021H17.5A2.352,2.352,0,0,0,20,7.857V5.69a1.171,1.171,0,0,0-1.246-1.078h-.009A1.171,1.171,0,0,0,17.5,5.69Z" transform="translate(0 10.41)" fill="#eaeaea"/>
    </g>
  </g>
</svg>
