<svg xmlns="http://www.w3.org/2000/svg" width="78.392" height="72" viewBox="0 0 78.392 72">
  <g id="shaker" transform="translate(-2234.167 -381.815)">
    <path id="Path_40" data-name="Path 40" d="M182.972,149.816a14.416,14.416,0,0,1-6.21-1.337l-.509-.263a1.191,1.191,0,0,1-.163-.073l-.162-.1-.186-.1c-.19-.118-.254-.163-.321-.2a.9.9,0,0,1-.231-.154c-.056-.036-.116-.075-.173-.115-.038-.021-.075-.045-.111-.07-.224-.162-.466-.346-.687-.528s-.421-.359-.642-.558l.556-.911-.7.776c-.015-.013-.163-.152-.175-.165a.7.7,0,0,1-.094-.105,2.3,2.3,0,0,1-.244-.259c-.015-.015-.259-.293-.272-.31a4.757,4.757,0,0,1-.312-.363,2.387,2.387,0,0,1-.248-.342c-4.9-6.422-3.5-17.313,3.409-25.805a27.026,27.026,0,0,1,13.693-9.287c5.186-1.386,9.974-.573,13.489,2.277v0c5.752,4.683,6.693,13.718,2.344,22.481-.272.56-.513,1-.772,1.439-.225.394-.455.78-.706,1.185-.359.556-.708,1.086-1.1,1.61-.321.453-.656.9-1.029,1.358l-.246.293c-.248.295-.494.586-.759.868a28.15,28.15,0,0,1-6.612,5.5c-.381.229-.77.443-1.159.656-.359.2-.725.383-1.089.547a19.586,19.586,0,0,1-2.733,1.076,7.129,7.129,0,0,1-1.089.321,10.115,10.115,0,0,1-1,.244,5.231,5.231,0,0,1-.622.132,17.8,17.8,0,0,1-3.135.286m-6.054-3.575a.91.91,0,0,1,.216.081l.541.28a13.332,13.332,0,0,0,8.12.864,2.375,2.375,0,0,0,.308-.064c.015,0,.182-.043.2-.045.293-.062.6-.124.89-.216a6.9,6.9,0,0,0,.949-.276,18.376,18.376,0,0,0,2.54-1c.334-.15.646-.3.954-.475.372-.2.734-.4,1.1-.624a24.9,24.9,0,0,0,3.017-2.113,25.431,25.431,0,0,0,3.128-3c.261-.276.477-.535.7-.8l.246-.293c.332-.4.637-.813.941-1.243.374-.507.7-1,1.024-1.5.231-.372.449-.736.669-1.12.237-.4.447-.787.641-1.193,3.971-7.993,3.252-16-1.728-20.056-2.975-2.418-7.106-3.092-11.633-1.882a24.939,24.939,0,0,0-12.612,8.584c-6.3,7.756-7.694,17.561-3.308,23.317a2.261,2.261,0,0,1,.257.346l.032.034.193.212.216.252c.009.008.2.19.207.2a.834.834,0,0,1,.094.105l.214.2c.148.131.323.287.515.445.162.131.332.263.5.383a.864.864,0,0,1,.156.1,2.213,2.213,0,0,0,.19.126,1.112,1.112,0,0,1,.109.075c.094.056.19.116.284.178a2.367,2.367,0,0,1,.231.128c.024.015-.009,0-.086-.013m-.254-.032h0Z" transform="translate(2085.999 272.929)" fill="#fff"/>
    <path id="Path_41" data-name="Path 41" d="M161.776,162.1a3.706,3.706,0,0,1-2.393-.8c-2.609-2.119-1.461-7.256,2.791-12.5,3.422-4.215,12.221-14.749,19.945-21.466a1.053,1.053,0,0,1,.787-.252,1.042,1.042,0,0,1,.723.4l1.191,1.315c.18.169.363.331.552.485s.383.3.582.441l1.525.887a1.059,1.059,0,0,1,.55.626,1.046,1.046,0,0,1-.083.828c-4.989,8.943-13.491,19.716-16.911,23.933a19.423,19.423,0,0,1-6.174,5.284,7.152,7.152,0,0,1-3.086.815m20.916-32.485c-7.4,6.625-15.624,16.475-18.9,20.506-3.648,4.495-4.448,8.46-3.1,9.557.642.526,1.824.426,3.246-.269a17.606,17.606,0,0,0,5.47-4.726c3.27-4.029,11.22-14.1,16.184-22.708l-.46-.286c-.152-.1-.27-.175-.385-.257-.239-.167-.47-.344-.7-.526s-.451-.378-.661-.575Z" transform="translate(2076.171 288.91)" fill="#fff"/>
    <path id="Path_42" data-name="Path 42" d="M163.9,170.087a7.23,7.23,0,0,1-2.156-.3,3.885,3.885,0,0,1-2.369-1.86,3.71,3.71,0,0,1-.4-1.856,1.03,1.03,0,0,1,.43-.806,1.043,1.043,0,0,1,.9-.156,1.843,1.843,0,0,0,.244.041,2.5,2.5,0,0,0,.774-.009,3.341,3.341,0,0,0,1.035-.269,2.378,2.378,0,0,0,.415-.163,4.644,4.644,0,0,0,1.05-.554,6.66,6.66,0,0,0,.8-.52,10.652,10.652,0,0,0,1.17-.926,3.739,3.739,0,0,0,.456-.4c.291-.255.473-.44.656-.622.254-.27.526-.56.8-.87.31-.331.579-.654.845-.975l.363-.443c.154-.188.316-.381.475-.594.562-.68,1.136-1.4,1.749-2.2.105-.126.184-.22.261-.327.409-.5.772-.967,1.136-1.46a1.041,1.041,0,0,1,.378-.316,171.528,171.528,0,0,1,19.887-8.479,15.665,15.665,0,0,1,1.174-8.74,1.053,1.053,0,0,1,.838-.633,1.623,1.623,0,0,0,.248-.054c.015,0,.182-.041.2-.043.293-.064.6-.126.892-.218a6.947,6.947,0,0,0,.947-.276,18.6,18.6,0,0,0,2.54-1c.334-.15.646-.3.954-.477a10.488,10.488,0,0,0,1.065-.6,25.192,25.192,0,0,0,3.049-2.13,25.587,25.587,0,0,0,3.128-3c.261-.274.477-.535.7-.8l.246-.293c.332-.4.637-.813.941-1.243.374-.507.7-.994,1.024-1.5.231-.372.449-.736.669-1.118.237-.4.447-.789.641-1.193a1.33,1.33,0,0,1,.74-.672c9.343-2.384,17.89.357,21.282,6.819v0c4.268,8.173-1.232,19.505-12.257,25.263-9.311,4.891-19.795,4.362-25.394-1.161-8.07,6.045-19.577,12.273-24.252,14.725a18.846,18.846,0,0,1-8.269,2.408m-2.481-2.844a2.121,2.121,0,0,0,.952.556c1.523.475,4.645.216,8.83-1.969,4.606-2.416,15.912-8.534,23.852-14.46a1.4,1.4,0,0,1-.081-.124l-.015-.023c-.064-.081-.12-.156-.169-.227-.023-.032-.043-.066-.064-.1a2.751,2.751,0,0,1-.269-.432,6.365,6.365,0,0,1-.391-.686c-.131-.246-.254-.509-.374-.772a2.8,2.8,0,0,1-.118-.278c-.118-.282-.165-.417-.209-.55l.558-.319a164.786,164.786,0,0,0-19.86,8.413c-.338.451-.676.883-1.012,1.289-.064.094-.173.227-.284.359-.6.783-1.191,1.527-1.741,2.192-.152.2-.331.417-.5.625l-.346.424c-.314.378-.61.734-.926,1.069-.261.3-.55.607-.838.911a9.656,9.656,0,0,1-.723.682,3.851,3.851,0,0,1-.545.485,11.551,11.551,0,0,1-1.313,1.035,6.709,6.709,0,0,1-.932.6,5.241,5.241,0,0,1-1.279.678,2.855,2.855,0,0,1-.58.225,4.544,4.544,0,0,1-1.42.364c-.058.013-.128.024-.2.034m35.951-16.316c4.728,5.4,14.62,5.988,23.478,1.339,10.006-5.226,15.108-15.3,11.376-22.449-2.881-5.483-10.256-7.818-18.457-5.877-.184.361-.363.682-.552,1-.227.394-.456.78-.708,1.185-.359.558-.708,1.086-1.1,1.61-.321.453-.656.905-1.029,1.358l-.246.293c-.248.295-.494.588-.759.868a27.636,27.636,0,0,1-3.353,3.214,27.164,27.164,0,0,1-3.259,2.282,11.176,11.176,0,0,1-1.2.674c-.319.182-.687.366-1.052.528a19.608,19.608,0,0,1-2.733,1.078,7.348,7.348,0,0,1-1.089.321c-.269.086-.635.165-.99.242a13.009,13.009,0,0,0-.669,7.87l.013.06c.019.047.053.207.066.254l.056.207-.911.475,0,.009,1.007-.182.066.186.111.316.147.342c.1.224.2.449.327.674a5.712,5.712,0,0,0,.34.6c.045.056.244.374.276.438.009.013.051.064.094.116a1.192,1.192,0,0,1,.115.177l.009.013c.028.034.053.071.079.109s.06.071.081.1l0,0s.053.062.1.128a1.293,1.293,0,0,1,.12.145l.175.212c.026.034.053.064.06.073" transform="translate(2077.037 283.728)" fill="#fff"/>
  </g>
</svg>
