<svg xmlns="http://www.w3.org/2000/svg" width="71.957" height="72" viewBox="0 0 71.957 72">
  <g id="short-drum" transform="translate(-1809.728 -382.203)">
    <path id="Path_38" data-name="Path 38" d="M69.925,180.981c-3.27,0-8.967-5.588-9.707-6.328-.865-.865-8.381-8.532-5.782-11.136a3.233,3.233,0,0,1,.264-.217l28.5-23.056c-4.362-7.585,1.017-14.76,6.665-22.294,1.374-1.831,2.782-3.709,4.079-5.633a.619.619,0,0,1,.047-.068q.716-1.065,1.382-2.15a1.793,1.793,0,0,1,.379-.563c1.17-1.172,3.417-.508,7.288,2.156a82.236,82.236,0,0,1,10.843,9.3c1.516,1.512,14.7,14.885,11.451,18.131a1.787,1.787,0,0,1-.563.378q-1.079.66-2.135,1.374a.879.879,0,0,1-.1.064c-1.918,1.3-3.791,2.7-5.618,4.07-7.536,5.65-14.711,11.028-22.3,6.669L71.522,180.241c-.055.068-.132.16-.164.194a1.943,1.943,0,0,1-1.433.546m14.45-38.991-28.423,22.99c-.145.646,1.6,4.045,5.75,8.191,4.03,4.028,7.353,5.8,8.215,5.72L92.882,150.5a20.271,20.271,0,0,1-1.848-1.627s0,0,0,0c-.03-.026-.057-.057-.085-.085l-4.851-4.85-.009-.009-.006-.006-.009-.011-.009-.009a19.954,19.954,0,0,1-1.684-1.9M69.984,178.879l-.019.008.019,0v0m25.069-29.418c6.669,4.33,12.925-.366,20.614-6.131,1.618-1.214,3.271-2.454,4.972-3.632-2.041-3.643-6.328-8.91-11.439-14.022s-10.4-9.412-14.041-11.449c-1.157,1.708-2.4,3.362-3.613,4.982-5.765,7.691-10.458,13.95-6.127,20.618l.047.066a16.19,16.19,0,0,0,2.052,2.5l.013.011,0,0,.043.045,4.853,4.851c.019.019.036.038.055.055,0,0,0-.006.006.006a16.088,16.088,0,0,0,2.49,2.046c.025.017.049.036.074.055m1.253-37c3.84,2.171,9.112,6.464,14.377,11.728,5.244,5.242,9.523,10.5,11.7,14.331q.682-.445,1.374-.865c.034-.021.066-.038.1-.055.125-1.027-3.047-6.724-11.455-15.136-8.5-8.5-14.214-11.617-15.277-11.379-.264.464-.54.921-.821,1.374" transform="translate(1755.835 273.221)" fill="#fff"/>
  </g>
</svg>
