<svg id="shuffle" xmlns="http://www.w3.org/2000/svg" width="32" height="24" viewBox="0 0 32 24">
  <g id="Group_12" data-name="Group 12" transform="translate(0 0)">
    <path id="Path_2" data-name="Path 2" d="M28.276,14.53a1.283,1.283,0,0,0-1.885,0,1.467,1.467,0,0,0,0,2l1.056,1.121H23.9a3.912,3.912,0,0,1-3.125-1.59L17.709,12l3.063-4.057A3.912,3.912,0,0,1,23.9,6.353h3.551L26.391,7.471a1.467,1.467,0,0,0,0,2,1.278,1.278,0,0,0,1.885,0l3.332-3.528a1.467,1.467,0,0,0,0-2L28.276.412a1.283,1.283,0,0,0-1.885,0,1.47,1.47,0,0,0,0,2l1.056,1.118H23.9a6.507,6.507,0,0,0-5.206,2.651L16,9.74,13.309,6.176A6.512,6.512,0,0,0,8.1,3.529H1.334A1.375,1.375,0,0,0,0,4.941,1.375,1.375,0,0,0,1.334,6.353H8.1a3.912,3.912,0,0,1,3.125,1.59L14.291,12l-3.063,4.057A3.912,3.912,0,0,1,8.1,17.647H1.334a1.413,1.413,0,0,0,0,2.822H8.1a6.5,6.5,0,0,0,5.206-2.648L16,14.26l2.691,3.561A6.5,6.5,0,0,0,23.9,20.469h3.551L26.391,21.59a1.467,1.467,0,0,0,0,2,1.278,1.278,0,0,0,1.885,0l3.332-3.528a1.47,1.47,0,0,0,0-2Z" transform="translate(0 0)" fill="#eaeaea"/>
  </g>
</svg>
