<svg xmlns="http://www.w3.org/2000/svg" width="25" height="20" viewBox="0 0 25 20">
  <path id="volume" d="M-84.042-67.738-87.9-64.032h-4.43a1.021,1.021,0,0,0-1.042,1v6a1.021,1.021,0,0,0,1.042,1h4.43l3.862,3.706a1.048,1.048,0,0,0,1.778-.707v-14A1.048,1.048,0,0,0-84.042-67.738Zm10.127-2.128a1.077,1.077,0,0,0-1.454.29.984.984,0,0,0,.3,1.4,9.63,9.63,0,0,1,4.593,8.149,9.63,9.63,0,0,1-4.593,8.149.983.983,0,0,0-.3,1.4,1.079,1.079,0,0,0,1.454.29,11.623,11.623,0,0,0,5.54-9.835A11.623,11.623,0,0,0-73.915-69.866Zm1.374,9.834a7.624,7.624,0,0,0-3.723-6.51,1.063,1.063,0,0,0-1.437.311.988.988,0,0,0,.322,1.39,5.635,5.635,0,0,1,2.755,4.809,5.635,5.635,0,0,1-2.755,4.809.988.988,0,0,0-.322,1.39,1.065,1.065,0,0,0,1.438.311A7.624,7.624,0,0,0-72.542-60.032Zm-6.153-3.2a1.068,1.068,0,0,0-1.415.394.98.98,0,0,0,.41,1.359,1.654,1.654,0,0,1,.908,1.45,1.654,1.654,0,0,1-.908,1.45.98.98,0,0,0-.41,1.359,1.066,1.066,0,0,0,1.415.394,3.645,3.645,0,0,0,1.987-3.2A3.643,3.643,0,0,0-78.695-63.235Z" transform="translate(93.375 70.032)" fill="#fff"/>
</svg>
